0
SECTION
2
HEADER
9
$INSUNITS
70
4
9
$ACADVER
1
AC1014
9
$HANDSEED
5
FFFF
0
ENDSEC
0
SECTION
2
TABLES
0
TABLE
2
VPORT
5
8
100
AcDbSymbolTable
0
ENDTAB
0
TABLE
2
LTYPE
5
5
100
AcDbSymbolTable
0
LTYPE
5
14
100
AcDbSymbolTableRecord
100
AcDbLinetypeTableRecord
2
BYBLOCK
70
0
0
LTYPE
5
15
100
AcDbSymbolTableRecord
100
AcDbLinetypeTableRecord
2
BYLAYER
70
0
0
ENDTAB
0
TABLE
2
LAYER
5
2
100
AcDbSymbolTable
70
2
0
LAYER
5
50
100
AcDbSymbolTableRecord
100
AcDbLayerTableRecord
2
0
70
0
6
CONTINUOUS
0
ENDTAB
0
TABLE
2
STYLE
5
3
100
AcDbSymbolTable
70
1
0
STYLE
5
11
100
AcDbSymbolTableRecord
100
AcDbTextStyleTableRecord
2
STANDARD
70
0
0
ENDTAB
0
TABLE
2
VIEW
5
6
100
AcDbSymbolTable
70
0
0
ENDTAB
0
TABLE
2
UCS
5
7
100
AcDbSymbolTable
70
0
0
ENDTAB
0
TABLE
2
APPID
5
9
100
AcDbSymbolTable
70
2
0
APPID
5
12
100
AcDbSymbolTableRecord
100
AcDbRegAppTableRecord
2
ACAD
70
0
0
ENDTAB
0
TABLE
2
DIMSTYLE
5
A
100
AcDbSymbolTable
70
1
0
ENDTAB
0
TABLE
2
BLOCK_RECORD
5
1
100
AcDbSymbolTable
70
1
0
BLOCK_RECORD
5
1F
100
AcDbSymbolTableRecord
100
AcDbBlockTableRecord
2
*MODEL_SPACE
0
BLOCK_RECORD
5
1B
100
AcDbSymbolTableRecord
100
AcDbBlockTableRecord
2
*PAPER_SPACE
0
ENDTAB
0
ENDSEC
0
SECTION
2
BLOCKS
0
BLOCK
5
20
100
AcDbEntity
100
AcDbBlockBegin
2
*MODEL_SPACE
0
ENDBLK
5
21
100
AcDbEntity
100
AcDbBlockEnd
0
BLOCK
5
1C
100
AcDbEntity
100
AcDbBlockBegin
2
*PAPER_SPACE
0
ENDBLK
5
1D
100
AcDbEntity
100
AcDbBlockEnd
0
ENDSEC
0
SECTION
2
ENTITIES
0
LWPOLYLINE
5
100
100
AcDbEntity
8
0
100
AcDbPolyline
90
172
70
1
43
0.0
10
-43.974358974358992
20
0
10
-43.974358974358992
20
6.0000000000000009
10
-31.41025641025637
20
6.0000000000000009
10
-31.41025641025637
20
0
10
-18.846153846153815
20
0
10
-18.846153846153815
20
6.0000000000000009
10
-6.2820512820512597
20
6.0000000000000009
10
-6.2820512820512597
20
0
10
6.2820512820512953
20
0
10
6.2820512820512953
20
6.0000000000000009
10
18.84615384615385
20
6.0000000000000009
10
18.84615384615385
20
0
10
31.410256410256405
20
0
10
31.410256410256405
20
6.0000000000000009
10
43.974358974358978
20
6.0000000000000009
10
43.974358974358978
20
0
10
56.538461538461533
20
0
10
56.538461538461533
20
6.0000000000000009
10
69.102564102564116
20
6.0000000000000009
10
69.102564102564116
20
0
10
81.666666666666686
20
0
10
81.666666666666686
20
6.0000000000000009
10
94.230769230769255
20
6.0000000000000009
10
94.230769230769255
20
0
10
106.79487179487181
20
0
10
106.79487179487181
20
6.0000000000000009
10
119.35897435897438
20
6.0000000000000009
10
119.35897435897438
20
0
10
131.92307692307693
20
0
10
131.92307692307693
20
6.0000000000000009
10
144.4871794871795
20
6.0000000000000009
10
144.4871794871795
20
0
10
157.05128205128207
20
0
10
157.05128205128207
20
6.0000000000000009
10
169.61538461538467
20
6.0000000000000009
10
169.61538461538467
20
0
10
182.17948717948724
20
0
10
182.17948717948724
20
6.0000000000000009
10
194.74358974358978
20
6.0000000000000009
10
194.74358974358978
20
0
10
207.30769230769232
20
0
10
207.30769230769232
20
6.0000000000000009
10
219.87179487179489
20
6.0000000000000009
10
219.87179487179489
20
0
10
232.43589743589746
20
0
10
232.43589743589746
20
6.0000000000000009
10
245.00000000000006
20
5.9999999999999964
10
245.00000000000006
20
17.800000000000004
10
239.00000000000006
20
17.800000000000004
10
239.00000000000006
20
32.600000000000009
10
245.00000000000006
20
32.600000000000009
10
245.00000000000006
20
47.400000000000006
10
239.00000000000006
20
47.400000000000006
10
239.00000000000006
20
62.200000000000003
10
245.00000000000006
20
62.200000000000003
10
245.00000000000006
20
68
10
232.43589743589746
20
68
10
232.43589743589746
20
74
10
219.87179487179489
20
74
10
219.87179487179489
20
68
10
207.30769230769232
20
68
10
207.30769230769232
20
74
10
194.74358974358978
20
74
10
194.74358974358978
20
68
10
182.17948717948724
20
68
10
182.17948717948724
20
74
10
169.61538461538467
20
74
10
169.61538461538467
20
68
10
157.05128205128207
20
68
10
157.05128205128207
20
74
10
144.4871794871795
20
74
10
144.4871794871795
20
68
10
131.92307692307693
20
68
10
131.92307692307693
20
74
10
119.35897435897438
20
74
10
119.35897435897438
20
68
10
106.79487179487181
20
68
10
106.79487179487181
20
74
10
94.230769230769255
20
74
10
94.230769230769255
20
68
10
81.666666666666686
20
68
10
81.666666666666686
20
74
10
69.102564102564116
20
74
10
69.102564102564116
20
68
10
56.538461538461533
20
68
10
56.538461538461533
20
74
10
43.974358974358978
20
74
10
43.974358974358978
20
68
10
31.410256410256405
20
68
10
31.410256410256405
20
74
10
18.84615384615385
20
74
10
18.84615384615385
20
68
10
6.2820512820512953
20
68
10
6.2820512820512953
20
74
10
-6.2820512820512597
20
74
10
-6.2820512820512597
20
68
10
-18.846153846153815
20
68
10
-18.846153846153815
20
74
10
-31.41025641025637
20
74
10
-31.41025641025637
20
68
10
-43.974358974358992
20
68
10
-43.974358974358992
20
74
10
-56.538461538461547
20
74
10
-56.538461538461547
20
68
10
-69.102564102564102
20
68
10
-69.102564102564102
20
74
10
-81.666666666666657
20
74
10
-81.666666666666657
20
68
10
-94.230769230769212
20
68
10
-94.230769230769212
20
74
10
-106.79487179487177
20
74
10
-106.79487179487177
20
68
10
-119.35897435897439
20
68
10
-119.35897435897439
20
74
10
-131.92307692307696
20
74
10
-131.92307692307696
20
68
10
-144.4871794871795
20
68
10
-144.4871794871795
20
74
10
-157.05128205128207
20
74
10
-157.05128205128207
20
68
10
-169.61538461538458
20
68
10
-169.61538461538458
20
74
10
-182.17948717948715
20
74
10
-182.17948717948715
20
68
10
-194.74358974358972
20
68
10
-194.74358974358972
20
74
10
-207.30769230769226
20
74
10
-207.30769230769226
20
68
10
-219.8717948717948
20
68
10
-219.8717948717948
20
74
10
-232.43589743589737
20
74
10
-232.43589743589737
20
68
10
-244.99999999999994
20
68
10
-244.99999999999994
20
62.200000000000003
10
-238.99999999999991
20
62.200000000000003
10
-238.99999999999991
20
47.400000000000006
10
-244.99999999999994
20
47.400000000000006
10
-244.99999999999994
20
32.600000000000009
10
-238.99999999999991
20
32.600000000000009
10
-238.99999999999991
20
17.800000000000004
10
-244.99999999999994
20
17.800000000000004
10
-244.99999999999994
20
6.0000000000000009
10
-232.43589743589737
20
6.0000000000000009
10
-232.43589743589737
20
0
10
-219.8717948717948
20
0
10
-219.8717948717948
20
6.0000000000000009
10
-207.30769230769226
20
6.0000000000000009
10
-207.30769230769226
20
0
10
-194.74358974358972
20
0
10
-194.74358974358972
20
6.0000000000000009
10
-182.17948717948715
20
6.0000000000000009
10
-182.17948717948715
20
0
10
-169.61538461538458
20
0
10
-169.61538461538458
20
6.0000000000000009
10
-157.05128205128207
20
6.0000000000000009
10
-157.05128205128207
20
0
10
-144.4871794871795
20
0
10
-144.4871794871795
20
6.0000000000000009
10
-131.92307692307696
20
6.0000000000000009
10
-131.92307692307696
20
0
10
-119.35897435897439
20
0
10
-119.35897435897439
20
6.0000000000000009
10
-106.79487179487177
20
6.0000000000000009
10
-106.79487179487177
20
0
10
-94.230769230769212
20
0
10
-94.230769230769212
20
6.0000000000000009
10
-81.666666666666657
20
6.0000000000000009
10
-81.666666666666657
20
0
10
-69.102564102564102
20
0
10
-69.102564102564102
20
6.0000000000000009
10
-56.538461538461547
20
6.0000000000000009
10
-56.538461538461547
20
0
0
LWPOLYLINE
5
101
100
AcDbEntity
8
0
100
AcDbPolyline
90
6
70
1
43
0.0
10
0.0027493611551321351
20
64.61880133523259
10
4.0013739719224617
20
62.307019651011785
10
3.9986246107673296
20
57.68821831577921
10
-0.0027493611551321351
20
55.381198664767446
10
-4.0013739719224617
20
57.69298034898825
10
-3.9986246107673296
20
62.311781684220826
0
LWPOLYLINE
5
102
100
AcDbEntity
8
0
100
AcDbPolyline
90
6
70
1
43
0.0
10
-4.0013739719224617
20
11.692980348988247
10
-3.9986246107673296
20
16.311781684220819
10
0.0027493611551321351
20
18.618801335232583
10
4.0013739719224617
20
16.307019651011778
10
3.9986246107673296
20
11.688218315779206
10
-0.0027493611551321351
20
9.3811986647674406
0
LWPOLYLINE
5
103
100
AcDbEntity
8
0
100
AcDbPolyline
90
6
70
1
43
0.0
10
-231.00274936115514
20
9.3811986647674406
10
-235.00137397192248
20
11.692980348988247
10
-234.99862461076734
20
16.311781684220819
10
-230.99725063884489
20
18.618801335232583
10
-226.99862602807755
20
16.307019651011778
10
-227.00137538923269
20
11.688218315779206
0
LWPOLYLINE
5
104
100
AcDbEntity
8
0
100
AcDbPolyline
90
6
70
1
43
0.0
10
235.00137397192248
20
62.307019651011785
10
234.99862461076734
20
57.68821831577921
10
230.99725063884489
20
55.381198664767446
10
226.99862602807755
20
57.69298034898825
10
227.00137538923269
20
62.311781684220826
10
231.00274936115514
20
64.61880133523259
0
LWPOLYLINE
5
105
100
AcDbEntity
8
0
100
AcDbPolyline
90
4
70
1
43
0.0
10
-19.999999999999996
20
19.500000000000028
10
-19.999999999999996
20
38.500000000000028
10
19.999999999999996
20
38.500000000000028
10
19.999999999999996
20
19.500000000000028
0
LWPOLYLINE
5
106
100
AcDbEntity
8
0
100
AcDbPolyline
90
6
70
1
43
0.0
10
234.99862461076734
20
11.688218315779206
10
230.99725063884489
20
9.3811986647674406
10
226.99862602807755
20
11.692980348988247
10
227.00137538923269
20
16.311781684220819
10
231.00274936115514
20
18.618801335232583
10
235.00137397192248
20
16.307019651011778
0
LWPOLYLINE
5
107
100
AcDbEntity
8
0
100
AcDbPolyline
90
6
70
1
43
0.0
10
-226.99862602807755
20
62.307019651011785
10
-227.00137538923269
20
57.68821831577921
10
-231.00274936115514
20
55.381198664767446
10
-235.00137397192248
20
57.69298034898825
10
-234.99862461076734
20
62.311781684220826
10
-230.99725063884489
20
64.61880133523259
0
ENDSEC
0
SECTION
2
OBJECTS
0
DICTIONARY
5
C
100
AcDbDictionary
3
ACAD_GROUP
350
D
3
ACAD_MLINESTYLE
350
17
0
DICTIONARY
5
D
100
AcDbDictionary
0
DICTIONARY
5
1A
330
C
100
AcDbDictionary
0
DICTIONARY
5
17
100
AcDbDictionary
0
ENDSEC
0
EOF
