0
SECTION
2
HEADER
9
$INSUNITS
70
4
9
$ACADVER
1
AC1014
9
$HANDSEED
5
FFFF
0
ENDSEC
0
SECTION
2
TABLES
0
TABLE
2
VPORT
5
8
100
AcDbSymbolTable
0
ENDTAB
0
TABLE
2
LTYPE
5
5
100
AcDbSymbolTable
0
LTYPE
5
14
100
AcDbSymbolTableRecord
100
AcDbLinetypeTableRecord
2
BYBLOCK
70
0
0
LTYPE
5
15
100
AcDbSymbolTableRecord
100
AcDbLinetypeTableRecord
2
BYLAYER
70
0
0
ENDTAB
0
TABLE
2
LAYER
5
2
100
AcDbSymbolTable
70
2
0
LAYER
5
50
100
AcDbSymbolTableRecord
100
AcDbLayerTableRecord
2
0
70
0
6
CONTINUOUS
0
ENDTAB
0
TABLE
2
STYLE
5
3
100
AcDbSymbolTable
70
1
0
STYLE
5
11
100
AcDbSymbolTableRecord
100
AcDbTextStyleTableRecord
2
STANDARD
70
0
0
ENDTAB
0
TABLE
2
VIEW
5
6
100
AcDbSymbolTable
70
0
0
ENDTAB
0
TABLE
2
UCS
5
7
100
AcDbSymbolTable
70
0
0
ENDTAB
0
TABLE
2
APPID
5
9
100
AcDbSymbolTable
70
2
0
APPID
5
12
100
AcDbSymbolTableRecord
100
AcDbRegAppTableRecord
2
ACAD
70
0
0
ENDTAB
0
TABLE
2
DIMSTYLE
5
A
100
AcDbSymbolTable
70
1
0
ENDTAB
0
TABLE
2
BLOCK_RECORD
5
1
100
AcDbSymbolTable
70
1
0
BLOCK_RECORD
5
1F
100
AcDbSymbolTableRecord
100
AcDbBlockTableRecord
2
*MODEL_SPACE
0
BLOCK_RECORD
5
1B
100
AcDbSymbolTableRecord
100
AcDbBlockTableRecord
2
*PAPER_SPACE
0
ENDTAB
0
ENDSEC
0
SECTION
2
BLOCKS
0
BLOCK
5
20
100
AcDbEntity
100
AcDbBlockBegin
2
*MODEL_SPACE
0
ENDBLK
5
21
100
AcDbEntity
100
AcDbBlockEnd
0
BLOCK
5
1C
100
AcDbEntity
100
AcDbBlockBegin
2
*PAPER_SPACE
0
ENDBLK
5
1D
100
AcDbEntity
100
AcDbBlockEnd
0
ENDSEC
0
SECTION
2
ENTITIES
0
LWPOLYLINE
5
100
100
AcDbEntity
8
0
100
AcDbPolyline
90
6
70
1
43
0.0
10
-4.0000000000000213
20
-112.30940107675849
10
-4.0000000000000213
20
-107.69059892324151
10
-3.5527136788005009e-14
20
-105.38119784648302
10
3.9999999999999503
20
-107.69059892324151
10
3.9999999999999503
20
-112.30940107675849
10
-3.5527136788005009e-14
20
-114.61880215351698
0
LWPOLYLINE
5
101
100
AcDbEntity
8
0
100
AcDbPolyline
90
228
70
1
43
0.0
10
31.410256410256405
20
125.00000000000003
10
31.410256410256405
20
119.00000000000004
10
18.84615384615385
20
119.00000000000004
10
18.84615384615385
20
125.00000000000003
10
6.2820512820512953
20
125.00000000000003
10
6.2820512820512953
20
119.00000000000004
10
-6.2820512820512597
20
119.00000000000004
10
-6.2820512820512597
20
125.00000000000003
10
-18.846153846153815
20
125.00000000000003
10
-18.846153846153815
20
119.00000000000004
10
-31.41025641025637
20
119.00000000000004
10
-31.41025641025637
20
125.00000000000003
10
-43.974358974358992
20
125.00000000000003
10
-43.974358974358992
20
119.00000000000004
10
-56.538461538461547
20
119.00000000000004
10
-56.538461538461547
20
125.00000000000003
10
-69.102564102564102
20
125.00000000000003
10
-69.102564102564102
20
119.00000000000004
10
-81.666666666666657
20
119.00000000000004
10
-81.666666666666657
20
125.00000000000003
10
-94.230769230769212
20
125.00000000000003
10
-94.230769230769212
20
119.00000000000004
10
-106.79487179487177
20
119.00000000000004
10
-106.79487179487177
20
125.00000000000003
10
-119.35897435897439
20
125.00000000000003
10
-119.35897435897439
20
119.00000000000004
10
-131.92307692307696
20
119.00000000000004
10
-131.92307692307696
20
125.00000000000003
10
-144.4871794871795
20
125.00000000000003
10
-144.4871794871795
20
119.00000000000004
10
-157.05128205128207
20
119.00000000000004
10
-157.05128205128207
20
125.00000000000003
10
-169.61538461538458
20
125.00000000000003
10
-169.61538461538458
20
119.00000000000004
10
-182.17948717948715
20
119.00000000000004
10
-182.17948717948715
20
125.00000000000003
10
-194.74358974358972
20
125.00000000000003
10
-194.74358974358972
20
119.00000000000004
10
-207.30769230769226
20
119.00000000000004
10
-207.30769230769226
20
125.00000000000003
10
-219.8717948717948
20
125.00000000000003
10
-219.8717948717948
20
119.00000000000004
10
-232.43589743589737
20
119.00000000000004
10
-232.43589743589737
20
125.00000000000003
10
-244.99999999999994
20
125.00000000000003
10
-244.99999999999997
20
111.84210526315796
10
-238.99999999999994
20
111.84210526315796
10
-238.99999999999994
20
98.684210526315866
10
-244.99999999999997
20
98.684210526315866
10
-244.99999999999997
20
85.526315789473756
10
-238.99999999999994
20
85.526315789473756
10
-238.99999999999994
20
72.368421052631646
10
-244.99999999999997
20
72.368421052631646
10
-244.99999999999997
20
59.210526315789537
10
-238.99999999999994
20
59.210526315789537
10
-238.99999999999994
20
46.052631578947434
10
-244.99999999999997
20
46.052631578947434
10
-244.99999999999997
20
32.894736842105331
10
-238.99999999999994
20
32.894736842105331
10
-238.99999999999994
20
19.736842105263221
10
-244.99999999999997
20
19.736842105263221
10
-244.99999999999997
20
6.5789473684211153
10
-238.99999999999994
20
6.5789473684211153
10
-238.99999999999994
20
-6.5789473684209909
10
-244.99999999999997
20
-6.5789473684209909
10
-244.99999999999997
20
-19.736842105263097
10
-238.99999999999994
20
-19.736842105263097
10
-238.99999999999994
20
-32.894736842105203
10
-244.99999999999997
20
-32.894736842105203
10
-244.99999999999997
20
-46.052631578947313
10
-238.99999999999994
20
-46.052631578947313
10
-238.99999999999994
20
-59.210526315789416
10
-244.99999999999997
20
-59.210526315789416
10
-244.99999999999997
20
-72.368421052631518
10
-238.99999999999994
20
-72.368421052631518
10
-238.99999999999994
20
-85.526315789473628
10
-244.99999999999997
20
-85.526315789473628
10
-244.99999999999997
20
-98.684210526315738
10
-238.99999999999994
20
-98.684210526315738
10
-238.99999999999994
20
-111.84210526315783
10
-244.99999999999997
20
-111.84210526315783
10
-244.99999999999994
20
-125
10
-232.43589743589737
20
-124.99999999999994
10
-232.43589743589737
20
-118.99999999999994
10
-219.8717948717948
20
-118.99999999999994
10
-219.8717948717948
20
-124.99999999999994
10
-207.30769230769226
20
-124.99999999999994
10
-207.30769230769226
20
-118.99999999999994
10
-194.74358974358972
20
-118.99999999999994
10
-194.74358974358972
20
-124.99999999999994
10
-182.17948717948715
20
-124.99999999999994
10
-182.17948717948715
20
-118.99999999999994
10
-169.61538461538458
20
-118.99999999999994
10
-169.61538461538458
20
-124.99999999999994
10
-157.05128205128207
20
-124.99999999999994
10
-157.05128205128207
20
-118.99999999999994
10
-144.4871794871795
20
-118.99999999999994
10
-144.4871794871795
20
-124.99999999999994
10
-131.92307692307696
20
-124.99999999999994
10
-131.92307692307696
20
-118.99999999999994
10
-119.35897435897439
20
-118.99999999999994
10
-119.35897435897439
20
-124.99999999999994
10
-106.79487179487177
20
-124.99999999999994
10
-106.79487179487177
20
-118.99999999999994
10
-94.230769230769212
20
-118.99999999999994
10
-94.230769230769212
20
-124.99999999999994
10
-81.666666666666657
20
-124.99999999999994
10
-81.666666666666657
20
-118.99999999999994
10
-69.102564102564102
20
-118.99999999999994
10
-69.102564102564102
20
-124.99999999999994
10
-56.538461538461547
20
-124.99999999999994
10
-56.538461538461547
20
-118.99999999999994
10
-43.974358974358992
20
-118.99999999999994
10
-43.974358974358992
20
-124.99999999999994
10
-31.41025641025637
20
-124.99999999999994
10
-31.41025641025637
20
-118.99999999999994
10
-18.846153846153815
20
-118.99999999999994
10
-18.846153846153815
20
-124.99999999999994
10
-6.2820512820512597
20
-124.99999999999994
10
-6.2820512820512597
20
-118.99999999999994
10
6.2820512820512953
20
-118.99999999999994
10
6.2820512820512953
20
-124.99999999999994
10
18.84615384615385
20
-124.99999999999994
10
18.84615384615385
20
-118.99999999999994
10
31.410256410256405
20
-118.99999999999994
10
31.410256410256405
20
-124.99999999999994
10
43.974358974358978
20
-124.99999999999994
10
43.974358974358978
20
-118.99999999999994
10
56.538461538461533
20
-118.99999999999994
10
56.538461538461533
20
-124.99999999999994
10
69.102564102564116
20
-124.99999999999994
10
69.102564102564116
20
-118.99999999999994
10
81.666666666666686
20
-118.99999999999994
10
81.666666666666686
20
-124.99999999999994
10
94.230769230769255
20
-124.99999999999994
10
94.230769230769255
20
-118.99999999999994
10
106.79487179487181
20
-118.99999999999994
10
106.79487179487181
20
-124.99999999999994
10
119.35897435897438
20
-124.99999999999994
10
119.35897435897438
20
-118.99999999999994
10
131.92307692307693
20
-118.99999999999994
10
131.92307692307693
20
-124.99999999999994
10
144.4871794871795
20
-124.99999999999994
10
144.4871794871795
20
-118.99999999999994
10
157.05128205128207
20
-118.99999999999994
10
157.05128205128207
20
-124.99999999999994
10
169.61538461538467
20
-124.99999999999994
10
169.61538461538467
20
-118.99999999999994
10
182.17948717948724
20
-118.99999999999994
10
182.17948717948724
20
-124.99999999999994
10
194.74358974358978
20
-124.99999999999994
10
194.74358974358978
20
-118.99999999999994
10
207.30769230769232
20
-118.99999999999994
10
207.30769230769232
20
-124.99999999999994
10
219.87179487179489
20
-124.99999999999994
10
219.87179487179489
20
-118.99999999999994
10
232.43589743589746
20
-118.99999999999994
10
232.43589743589746
20
-124.99999999999994
10
244.99999999999972
20
-125
10
245.00000000000003
20
-111.84210526315783
10
239.00000000000003
20
-111.84210526315783
10
239.00000000000003
20
-98.684210526315738
10
245.00000000000003
20
-98.684210526315738
10
245.00000000000003
20
-85.526315789473628
10
239.00000000000003
20
-85.526315789473628
10
239.00000000000003
20
-72.368421052631518
10
245.00000000000003
20
-72.368421052631518
10
245.00000000000003
20
-59.210526315789416
10
239.00000000000003
20
-59.210526315789416
10
239.00000000000003
20
-46.052631578947313
10
245.00000000000003
20
-46.052631578947313
10
245.00000000000003
20
-32.894736842105203
10
239.00000000000003
20
-32.894736842105203
10
239.00000000000003
20
-19.736842105263097
10
245.00000000000003
20
-19.736842105263097
10
245.00000000000003
20
-6.5789473684209909
10
239.00000000000003
20
-6.5789473684209909
10
239.00000000000003
20
6.5789473684211153
10
245.00000000000003
20
6.5789473684211153
10
245.00000000000003
20
19.736842105263221
10
239.00000000000003
20
19.736842105263221
10
239.00000000000003
20
32.894736842105331
10
245.00000000000003
20
32.894736842105331
10
245.00000000000003
20
46.052631578947434
10
239.00000000000003
20
46.052631578947434
10
239.00000000000003
20
59.210526315789537
10
245.00000000000003
20
59.210526315789537
10
245.00000000000003
20
72.368421052631646
10
239.00000000000003
20
72.368421052631646
10
239.00000000000003
20
85.526315789473756
10
245.00000000000003
20
85.526315789473756
10
245.00000000000003
20
98.684210526315866
10
239.00000000000003
20
98.684210526315866
10
239.00000000000003
20
111.84210526315796
10
245.00000000000003
20
111.84210526315796
10
245.00000000000006
20
125.00000000000003
10
232.43589743589746
20
125.00000000000003
10
232.43589743589746
20
119.00000000000004
10
219.87179487179489
20
119.00000000000004
10
219.87179487179489
20
125.00000000000003
10
207.30769230769232
20
125.00000000000003
10
207.30769230769232
20
119.00000000000004
10
194.74358974358978
20
119.00000000000004
10
194.74358974358978
20
125.00000000000003
10
182.17948717948724
20
125.00000000000003
10
182.17948717948724
20
119.00000000000004
10
169.61538461538467
20
119.00000000000004
10
169.61538461538467
20
125.00000000000003
10
157.05128205128207
20
125.00000000000003
10
157.05128205128207
20
119.00000000000004
10
144.4871794871795
20
119.00000000000004
10
144.4871794871795
20
125.00000000000003
10
131.92307692307693
20
125.00000000000003
10
131.92307692307693
20
119.00000000000004
10
119.35897435897438
20
119.00000000000004
10
119.35897435897438
20
125.00000000000003
10
106.79487179487181
20
125.00000000000003
10
106.79487179487181
20
119.00000000000004
10
94.230769230769255
20
119.00000000000004
10
94.230769230769255
20
125.00000000000003
10
81.666666666666686
20
125.00000000000003
10
81.666666666666686
20
119.00000000000004
10
69.102564102564116
20
119.00000000000004
10
69.102564102564116
20
125.00000000000003
10
56.538461538461533
20
125.00000000000003
10
56.538461538461533
20
119.00000000000004
10
43.974358974358978
20
119.00000000000004
10
43.974358974358978
20
125.00000000000003
0
LWPOLYLINE
5
102
100
AcDbEntity
8
0
100
AcDbPolyline
90
6
70
1
43
0.0
10
-234.00000000000006
20
2.3094010767584905
10
-230.00000000000006
20
4.618802153516981
10
-226.00000000000009
20
2.3094010767584905
10
-226.00000000000009
20
-2.3094010767584905
10
-230.00000000000006
20
-4.618802153516981
10
-234.00000000000006
20
-2.3094010767584905
0
LWPOLYLINE
5
103
100
AcDbEntity
8
0
100
AcDbPolyline
90
4
70
1
43
0.0
10
-220.50000000000068
20
100.49999999999963
10
220.49999999999898
20
100.49999999999963
10
220.49999999999929
20
-100.50000000000031
10
-220.50000000000065
20
-100.50000000000034
0
LWPOLYLINE
5
104
100
AcDbEntity
8
0
100
AcDbPolyline
90
6
70
1
43
0.0
10
226
20
2.3094010767584905
10
230
20
4.618802153516981
10
234
20
2.3094010767584905
10
234
20
-2.3094010767584905
10
230
20
-4.618802153516981
10
226
20
-2.3094010767584905
0
LWPOLYLINE
5
105
100
AcDbEntity
8
0
100
AcDbPolyline
90
6
70
1
43
0.0
10
3.9999999999999503
20
107.69059892324151
10
-3.5527136788005009e-14
20
105.38119784648302
10
-4.0000000000000213
20
107.69059892324151
10
-4.0000000000000213
20
112.30940107675849
10
-3.5527136788005009e-14
20
114.61880215351698
10
3.9999999999999503
20
112.30940107675849
0
LWPOLYLINE
5
106
100
AcDbEntity
8
0
100
AcDbPolyline
90
6
70
1
43
0.0
10
234
20
-112.30940107675849
10
230
20
-114.61880215351698
10
226
20
-112.30940107675849
10
226
20
-107.69059892324151
10
230
20
-105.38119784648302
10
234
20
-107.69059892324151
0
LWPOLYLINE
5
107
100
AcDbEntity
8
0
100
AcDbPolyline
90
6
70
1
43
0.0
10
226
20
107.69059892324151
10
226
20
112.30940107675849
10
230
20
114.61880215351698
10
234
20
112.30940107675849
10
234
20
107.69059892324151
10
230
20
105.38119784648302
0
LWPOLYLINE
5
108
100
AcDbEntity
8
0
100
AcDbPolyline
90
6
70
1
43
0.0
10
-226.00000000000009
20
112.30940107675849
10
-226.00000000000009
20
107.69059892324151
10
-230.00000000000006
20
105.38119784648302
10
-234.00000000000006
20
107.69059892324151
10
-234.00000000000006
20
112.30940107675849
10
-230.00000000000006
20
114.61880215351698
0
LWPOLYLINE
5
109
100
AcDbEntity
8
0
100
AcDbPolyline
90
6
70
1
43
0.0
10
-234.00000000000006
20
-112.30940107675849
10
-234.00000000000006
20
-107.69059892324151
10
-230.00000000000006
20
-105.38119784648302
10
-226.00000000000009
20
-107.69059892324151
10
-226.00000000000009
20
-112.30940107675849
10
-230.00000000000006
20
-114.61880215351698
0
ENDSEC
0
SECTION
2
OBJECTS
0
DICTIONARY
5
C
100
AcDbDictionary
3
ACAD_GROUP
350
D
3
ACAD_MLINESTYLE
350
17
0
DICTIONARY
5
D
100
AcDbDictionary
0
DICTIONARY
5
1A
330
C
100
AcDbDictionary
0
DICTIONARY
5
17
100
AcDbDictionary
0
ENDSEC
0
EOF
