0
SECTION
2
HEADER
9
$INSUNITS
70
4
9
$ACADVER
1
AC1014
9
$HANDSEED
5
FFFF
0
ENDSEC
0
SECTION
2
TABLES
0
TABLE
2
VPORT
5
8
100
AcDbSymbolTable
0
ENDTAB
0
TABLE
2
LTYPE
5
5
100
AcDbSymbolTable
0
LTYPE
5
14
100
AcDbSymbolTableRecord
100
AcDbLinetypeTableRecord
2
BYBLOCK
70
0
0
LTYPE
5
15
100
AcDbSymbolTableRecord
100
AcDbLinetypeTableRecord
2
BYLAYER
70
0
0
ENDTAB
0
TABLE
2
LAYER
5
2
100
AcDbSymbolTable
70
2
0
LAYER
5
50
100
AcDbSymbolTableRecord
100
AcDbLayerTableRecord
2
0
70
0
6
CONTINUOUS
0
ENDTAB
0
TABLE
2
STYLE
5
3
100
AcDbSymbolTable
70
1
0
STYLE
5
11
100
AcDbSymbolTableRecord
100
AcDbTextStyleTableRecord
2
STANDARD
70
0
0
ENDTAB
0
TABLE
2
VIEW
5
6
100
AcDbSymbolTable
70
0
0
ENDTAB
0
TABLE
2
UCS
5
7
100
AcDbSymbolTable
70
0
0
ENDTAB
0
TABLE
2
APPID
5
9
100
AcDbSymbolTable
70
2
0
APPID
5
12
100
AcDbSymbolTableRecord
100
AcDbRegAppTableRecord
2
ACAD
70
0
0
ENDTAB
0
TABLE
2
DIMSTYLE
5
A
100
AcDbSymbolTable
70
1
0
ENDTAB
0
TABLE
2
BLOCK_RECORD
5
1
100
AcDbSymbolTable
70
1
0
BLOCK_RECORD
5
1F
100
AcDbSymbolTableRecord
100
AcDbBlockTableRecord
2
*MODEL_SPACE
0
BLOCK_RECORD
5
1B
100
AcDbSymbolTableRecord
100
AcDbBlockTableRecord
2
*PAPER_SPACE
0
ENDTAB
0
ENDSEC
0
SECTION
2
BLOCKS
0
BLOCK
5
20
100
AcDbEntity
100
AcDbBlockBegin
2
*MODEL_SPACE
0
ENDBLK
5
21
100
AcDbEntity
100
AcDbBlockEnd
0
BLOCK
5
1C
100
AcDbEntity
100
AcDbBlockBegin
2
*PAPER_SPACE
0
ENDBLK
5
1D
100
AcDbEntity
100
AcDbBlockEnd
0
ENDSEC
0
SECTION
2
ENTITIES
0
LWPOLYLINE
5
100
100
AcDbEntity
8
0
100
AcDbPolyline
90
6
70
1
43
0.0
10
-105.99441939305258
20
16.299708097689738
10
-106.00560406263821
20
11.680919486322079
10
-110.01118466958566
20
9.3812113886323356
10
-114.00558060694749
20
11.700291902310251
10
-113.99439593736187
20
16.31908051367791
10
-109.98881533041441
20
18.618788611367656
0
LWPOLYLINE
5
101
100
AcDbEntity
8
0
100
AcDbPolyline
90
6
70
1
43
0.0
10
114.00558060694742
20
16.299708097689738
10
113.99439593736179
20
11.680919486322079
10
109.98881533041434
20
9.3812113886323356
10
105.99441939305251
20
11.700291902310251
10
106.00560406263813
20
16.31908051367791
10
110.01118466958559
20
18.618788611367656
0
LWPOLYLINE
5
102
100
AcDbEntity
8
0
100
AcDbPolyline
90
6
70
1
43
0.0
10
-110.01118466958566
20
55.38121138863233
10
-114.00558060694749
20
57.700291902310248
10
-113.99439593736187
20
62.319080513677903
10
-109.98881533041441
20
64.618788611367648
10
-105.99441939305258
20
62.299708097689731
10
-106.00560406263821
20
57.680919486322075
0
LWPOLYLINE
5
103
100
AcDbEntity
8
0
100
AcDbPolyline
90
6
70
1
43
0.0
10
114.00558060694742
20
62.299708097689731
10
113.99439593736179
20
57.680919486322075
10
109.98881533041434
20
55.38121138863233
10
105.99441939305251
20
57.700291902310248
10
106.00560406263813
20
62.319080513677903
10
110.01118466958559
20
64.618788611367648
0
LWPOLYLINE
5
104
100
AcDbEntity
8
0
100
AcDbPolyline
90
92
70
1
43
0.0
10
-118.99999999999986
20
5.9999999999999964
10
-111.84210526315775
20
6.0000000000000009
10
-111.84210526315775
20
0
10
-98.684210526315638
20
5.7953597203736789e-31
10
-98.684210526315638
20
6.0000000000000009
10
-85.526315789473543
20
6.0000000000000009
10
-85.526315789473543
20
0
10
-72.368421052631433
20
5.7953597203736789e-31
10
-72.368421052631433
20
6.0000000000000009
10
-59.210526315789323
20
6.0000000000000009
10
-59.210526315789323
20
0
10
-46.052631578947221
20
5.7953597203736789e-31
10
-46.052631578947221
20
6.0000000000000009
10
-32.894736842105118
20
6.0000000000000009
10
-32.894736842105118
20
0
10
-19.736842105263008
20
5.7953597203736789e-31
10
-19.736842105263012
20
6.0000000000000009
10
-6.5789473684209039
20
6.0000000000000009
10
-6.5789473684209039
20
0
10
6.5789473684212023
20
5.7953597203736789e-31
10
6.5789473684212023
20
6.0000000000000009
10
19.736842105263307
20
6.0000000000000009
10
19.736842105263307
20
0
10
32.894736842105416
20
5.7953597203736789e-31
10
32.894736842105416
20
6.0000000000000009
10
46.052631578947526
20
6.0000000000000009
10
46.052631578947526
20
0
10
59.210526315789629
20
5.7953597203736789e-31
10
59.210526315789629
20
6.0000000000000009
10
72.368421052631732
20
6.0000000000000009
10
72.368421052631732
20
0
10
85.526315789473841
20
5.7953597203736789e-31
10
85.526315789473841
20
6.0000000000000009
10
98.684210526315951
20
6.0000000000000009
10
98.684210526315951
20
0
10
111.84210526315826
20
0
10
111.84210526315826
20
6.0000000000000009
10
119.00000000000013
20
5.9999999999999964
10
119.00000000000013
20
17.800000000000004
10
125.00000000000013
20
17.800000000000004
10
125.00000000000013
20
32.600000000000009
10
119.00000000000013
20
32.600000000000009
10
119.00000000000013
20
47.400000000000006
10
125.00000000000013
20
47.400000000000006
10
125.00000000000013
20
62.200000000000003
10
119.00000000000013
20
62.200000000000003
10
119.00000000000014
20
68
10
111.84210526315806
20
68
10
111.84210526315806
20
74
10
98.684210526315951
20
74
10
98.684210526315951
20
68
10
85.526315789473841
20
68
10
85.526315789473841
20
74
10
72.368421052631732
20
74
10
72.368421052631732
20
68
10
59.210526315789629
20
68
10
59.210526315789629
20
74
10
46.052631578947526
20
74
10
46.052631578947526
20
68
10
32.894736842105416
20
68
10
32.894736842105416
20
74
10
19.73684210526331
20
74
10
19.736842105263307
20
68
10
6.5789473684212023
20
68
10
6.5789473684212023
20
74
10
-6.5789473684209039
20
74
10
-6.5789473684209039
20
68
10
-19.736842105263012
20
68
10
-19.736842105263012
20
74
10
-32.894736842105118
20
74
10
-32.894736842105118
20
68
10
-46.052631578947221
20
68
10
-46.052631578947221
20
74
10
-59.210526315789323
20
74
10
-59.210526315789323
20
68
10
-72.368421052631433
20
68
10
-72.368421052631433
20
74
10
-85.526315789473543
20
74
10
-85.526315789473543
20
68
10
-98.684210526315638
20
68
10
-98.684210526315638
20
74
10
-111.84210526315775
20
74
10
-111.84210526315775
20
68
10
-118.99999999999986
20
68
10
-118.99999999999986
20
62.200000000000003
10
-124.99999999999986
20
62.200000000000003
10
-124.99999999999986
20
47.400000000000006
10
-118.99999999999986
20
47.400000000000006
10
-118.99999999999986
20
32.600000000000009
10
-124.99999999999986
20
32.600000000000009
10
-124.99999999999986
20
17.800000000000004
10
-118.99999999999986
20
17.800000000000004
0
ENDSEC
0
SECTION
2
OBJECTS
0
DICTIONARY
5
C
100
AcDbDictionary
3
ACAD_GROUP
350
D
3
ACAD_MLINESTYLE
350
17
0
DICTIONARY
5
D
100
AcDbDictionary
0
DICTIONARY
5
1A
330
C
100
AcDbDictionary
0
DICTIONARY
5
17
100
AcDbDictionary
0
ENDSEC
0
EOF
