0
SECTION
2
HEADER
9
$INSUNITS
70
4
9
$ACADVER
1
AC1014
9
$HANDSEED
5
FFFF
0
ENDSEC
0
SECTION
2
TABLES
0
TABLE
2
VPORT
5
8
100
AcDbSymbolTable
0
ENDTAB
0
TABLE
2
LTYPE
5
5
100
AcDbSymbolTable
0
LTYPE
5
14
100
AcDbSymbolTableRecord
100
AcDbLinetypeTableRecord
2
BYBLOCK
70
0
0
LTYPE
5
15
100
AcDbSymbolTableRecord
100
AcDbLinetypeTableRecord
2
BYLAYER
70
0
0
ENDTAB
0
TABLE
2
LAYER
5
2
100
AcDbSymbolTable
70
2
0
LAYER
5
50
100
AcDbSymbolTableRecord
100
AcDbLayerTableRecord
2
0
70
0
6
CONTINUOUS
0
ENDTAB
0
TABLE
2
STYLE
5
3
100
AcDbSymbolTable
70
1
0
STYLE
5
11
100
AcDbSymbolTableRecord
100
AcDbTextStyleTableRecord
2
STANDARD
70
0
0
ENDTAB
0
TABLE
2
VIEW
5
6
100
AcDbSymbolTable
70
0
0
ENDTAB
0
TABLE
2
UCS
5
7
100
AcDbSymbolTable
70
0
0
ENDTAB
0
TABLE
2
APPID
5
9
100
AcDbSymbolTable
70
2
0
APPID
5
12
100
AcDbSymbolTableRecord
100
AcDbRegAppTableRecord
2
ACAD
70
0
0
ENDTAB
0
TABLE
2
DIMSTYLE
5
A
100
AcDbSymbolTable
70
1
0
ENDTAB
0
TABLE
2
BLOCK_RECORD
5
1
100
AcDbSymbolTable
70
1
0
BLOCK_RECORD
5
1F
100
AcDbSymbolTableRecord
100
AcDbBlockTableRecord
2
*MODEL_SPACE
0
BLOCK_RECORD
5
1B
100
AcDbSymbolTableRecord
100
AcDbBlockTableRecord
2
*PAPER_SPACE
0
ENDTAB
0
ENDSEC
0
SECTION
2
BLOCKS
0
BLOCK
5
20
100
AcDbEntity
100
AcDbBlockBegin
2
*MODEL_SPACE
0
ENDBLK
5
21
100
AcDbEntity
100
AcDbBlockEnd
0
BLOCK
5
1C
100
AcDbEntity
100
AcDbBlockBegin
2
*PAPER_SPACE
0
ENDBLK
5
1D
100
AcDbEntity
100
AcDbBlockEnd
0
ENDSEC
0
SECTION
2
ENTITIES
0
LWPOLYLINE
5
100
100
AcDbEntity
8
0
100
AcDbPolyline
90
6
70
1
43
0.0
10
106.0056040626383
20
11.680919486322079
10
105.99441939305267
20
16.299708097689738
10
109.9888153304145
20
18.618788611367656
10
113.99439593736196
20
16.31908051367791
10
114.00558060694758
20
11.700291902310251
10
110.01118466958575
20
9.3812113886323356
0
LWPOLYLINE
5
101
100
AcDbEntity
8
0
100
AcDbPolyline
90
6
70
1
43
0.0
10
-113.9943959373617
20
11.680919486322079
10
-114.00558060694733
20
16.299708097689738
10
-110.0111846695855
20
18.618788611367656
10
-106.00560406263804
20
16.31908051367791
10
-105.99441939305242
20
11.700291902310251
10
-109.98881533041425
20
9.3812113886323356
0
LWPOLYLINE
5
102
100
AcDbEntity
8
0
100
AcDbPolyline
90
6
70
1
43
0.0
10
114.00558060694758
20
57.700291902310248
10
110.01118466958575
20
55.38121138863233
10
106.0056040626383
20
57.680919486322075
10
105.99441939305267
20
62.299708097689731
10
109.9888153304145
20
64.618788611367648
10
113.99439593736196
20
62.319080513677903
0
LWPOLYLINE
5
103
100
AcDbEntity
8
0
100
AcDbPolyline
90
6
70
1
43
0.0
10
-113.9943959373617
20
57.680919486322075
10
-114.00558060694733
20
62.299708097689731
10
-110.0111846695855
20
64.618788611367648
10
-106.00560406263804
20
62.319080513677903
10
-105.99441939305242
20
57.700291902310248
10
-109.98881533041425
20
55.38121138863233
0
LWPOLYLINE
5
104
100
AcDbEntity
8
0
100
AcDbPolyline
90
92
70
1
43
0.0
10
111.84210526315783
20
6.0000000000000009
10
118.99999999999994
20
6.0000000000000009
10
118.99999999999994
20
17.800000000000004
10
124.99999999999994
20
17.800000000000004
10
124.99999999999994
20
32.600000000000009
10
118.99999999999994
20
32.600000000000009
10
118.99999999999994
20
47.400000000000006
10
124.99999999999994
20
47.400000000000006
10
124.99999999999994
20
62.200000000000003
10
118.99999999999994
20
62.200000000000003
10
118.99999999999994
20
68
10
111.84210526315783
20
68
10
111.84210526315783
20
74
10
98.684210526315738
20
74
10
98.684210526315738
20
68
10
85.526315789473628
20
68
10
85.526315789473628
20
74
10
72.368421052631518
20
74
10
72.368421052631518
20
68
10
59.210526315789416
20
68
10
59.210526315789416
20
74
10
46.052631578947313
20
74
10
46.052631578947313
20
68
10
32.894736842105203
20
68
10
32.894736842105203
20
74
10
19.736842105263097
20
74
10
19.736842105263097
20
68
10
6.5789473684209909
20
68
10
6.5789473684209909
20
74
10
-6.5789473684211153
20
74
10
-6.5789473684211153
20
68
10
-19.736842105263221
20
68
10
-19.736842105263221
20
74
10
-32.894736842105331
20
74
10
-32.894736842105331
20
68
10
-46.052631578947434
20
68
10
-46.052631578947434
20
74
10
-59.210526315789537
20
74
10
-59.210526315789537
20
68
10
-72.368421052631646
20
68
10
-72.368421052631646
20
74
10
-85.526315789473756
20
74
10
-85.526315789473756
20
68
10
-98.684210526315866
20
68
10
-98.684210526315866
20
74
10
-111.84210526315796
20
74
10
-111.84210526315796
20
68
10
-119.00000000000004
20
68
10
-119.00000000000004
20
62.200000000000003
10
-125.00000000000003
20
62.200000000000003
10
-125.00000000000003
20
47.400000000000006
10
-119.00000000000004
20
47.400000000000006
10
-119.00000000000004
20
32.600000000000009
10
-125.00000000000003
20
32.600000000000009
10
-125.00000000000003
20
17.800000000000004
10
-119.00000000000004
20
17.800000000000004
10
-119.00000000000004
20
6.0000000000000009
10
-111.8421052631582
20
6.0000000000000053
10
-111.8421052631582
20
0
10
-98.684210526315866
20
0
10
-98.684210526315866
20
6.0000000000000009
10
-85.526315789473756
20
6.0000000000000009
10
-85.526315789473756
20
0
10
-72.368421052631646
20
0
10
-72.368421052631646
20
6.0000000000000009
10
-59.210526315789537
20
6.0000000000000009
10
-59.210526315789537
20
0
10
-46.052631578947434
20
0
10
-46.052631578947434
20
6.0000000000000009
10
-32.894736842105331
20
6.0000000000000009
10
-32.894736842105331
20
0
10
-19.736842105263221
20
0
10
-19.736842105263221
20
6.0000000000000009
10
-6.5789473684211153
20
6.0000000000000009
10
-6.5789473684211153
20
0
10
6.5789473684209909
20
0
10
6.5789473684209909
20
6.0000000000000009
10
19.736842105263097
20
6.0000000000000009
10
19.736842105263097
20
0
10
32.894736842105203
20
0
10
32.894736842105203
20
6.0000000000000009
10
46.052631578947313
20
6.0000000000000009
10
46.052631578947313
20
0
10
59.210526315789416
20
0
10
59.210526315789416
20
6.0000000000000009
10
72.368421052631518
20
6.0000000000000009
10
72.368421052631518
20
0
10
85.526315789473628
20
0
10
85.526315789473628
20
6.0000000000000009
10
98.684210526315738
20
6.0000000000000009
10
98.684210526315738
20
0
10
111.84210526315783
20
0
0
ENDSEC
0
SECTION
2
OBJECTS
0
DICTIONARY
5
C
100
AcDbDictionary
3
ACAD_GROUP
350
D
3
ACAD_MLINESTYLE
350
17
0
DICTIONARY
5
D
100
AcDbDictionary
0
DICTIONARY
5
1A
330
C
100
AcDbDictionary
0
DICTIONARY
5
17
100
AcDbDictionary
0
ENDSEC
0
EOF
