0
SECTION
2
HEADER
9
$INSUNITS
70
4
9
$ACADVER
1
AC1014
9
$HANDSEED
5
FFFF
0
ENDSEC
0
SECTION
2
TABLES
0
TABLE
2
VPORT
5
8
100
AcDbSymbolTable
0
ENDTAB
0
TABLE
2
LTYPE
5
5
100
AcDbSymbolTable
0
LTYPE
5
14
100
AcDbSymbolTableRecord
100
AcDbLinetypeTableRecord
2
BYBLOCK
70
0
0
LTYPE
5
15
100
AcDbSymbolTableRecord
100
AcDbLinetypeTableRecord
2
BYLAYER
70
0
0
ENDTAB
0
TABLE
2
LAYER
5
2
100
AcDbSymbolTable
70
2
0
LAYER
5
50
100
AcDbSymbolTableRecord
100
AcDbLayerTableRecord
2
0
70
0
6
CONTINUOUS
0
ENDTAB
0
TABLE
2
STYLE
5
3
100
AcDbSymbolTable
70
1
0
STYLE
5
11
100
AcDbSymbolTableRecord
100
AcDbTextStyleTableRecord
2
STANDARD
70
0
0
ENDTAB
0
TABLE
2
VIEW
5
6
100
AcDbSymbolTable
70
0
0
ENDTAB
0
TABLE
2
UCS
5
7
100
AcDbSymbolTable
70
0
0
ENDTAB
0
TABLE
2
APPID
5
9
100
AcDbSymbolTable
70
2
0
APPID
5
12
100
AcDbSymbolTableRecord
100
AcDbRegAppTableRecord
2
ACAD
70
0
0
ENDTAB
0
TABLE
2
DIMSTYLE
5
A
100
AcDbSymbolTable
70
1
0
ENDTAB
0
TABLE
2
BLOCK_RECORD
5
1
100
AcDbSymbolTable
70
1
0
BLOCK_RECORD
5
1F
100
AcDbSymbolTableRecord
100
AcDbBlockTableRecord
2
*MODEL_SPACE
0
BLOCK_RECORD
5
1B
100
AcDbSymbolTableRecord
100
AcDbBlockTableRecord
2
*PAPER_SPACE
0
ENDTAB
0
ENDSEC
0
SECTION
2
BLOCKS
0
BLOCK
5
20
100
AcDbEntity
100
AcDbBlockBegin
2
*MODEL_SPACE
0
ENDBLK
5
21
100
AcDbEntity
100
AcDbBlockEnd
0
BLOCK
5
1C
100
AcDbEntity
100
AcDbBlockBegin
2
*PAPER_SPACE
0
ENDBLK
5
1D
100
AcDbEntity
100
AcDbBlockEnd
0
ENDSEC
0
SECTION
2
ENTITIES
0
LWPOLYLINE
5
100
100
AcDbEntity
8
0
100
AcDbPolyline
90
4
70
1
43
0.0
10
23.334523779155937
20
72.999999999999986
10
-1.4964050845199821e-14
20
49.665476220844063
10
-23.334523779155969
20
73.000000000000028
10
-1.1797576619352795e-14
20
96.334523779155973
0
LWPOLYLINE
5
101
100
AcDbEntity
8
0
100
AcDbPolyline
90
4
70
1
43
0.0
10
-151.50000000000486
20
35.999999999997762
10
151.500000000005
20
35.999999999997804
10
151.500000000005
20
-35.999999999997804
10
-151.50000000000486
20
-35.999999999997748
0
LWPOLYLINE
5
102
100
AcDbEntity
8
0
100
AcDbPolyline
90
6
70
1
43
0.0
10
-234
20
-2.3094010767585189
10
-234
20
2.3094010767584621
10
-230
20
4.6188021535169526
10
-226
20
2.309401076758463
10
-226
20
-2.309401076758518
10
-230
20
-4.6188021535170094
0
LWPOLYLINE
5
103
100
AcDbEntity
8
0
100
AcDbPolyline
90
228
70
1
43
0.0
10
-239.00000000000003
20
46.052631578947285
10
-245.00000000000003
20
46.052631578947285
10
-245.00000000000003
20
32.894736842105175
10
-239.00000000000003
20
32.894736842105175
10
-239.00000000000003
20
19.736842105263069
10
-245.00000000000003
20
19.736842105263065
10
-245.00000000000003
20
6.5789473684209607
10
-239.00000000000003
20
6.5789473684209625
10
-239.00000000000003
20
-6.5789473684211437
10
-245.00000000000003
20
-6.5789473684211455
10
-245.00000000000003
20
-19.736842105263253
10
-239.00000000000003
20
-19.73684210526325
10
-239.00000000000003
20
-32.89473684210536
10
-245.00000000000003
20
-32.89473684210536
10
-245.00000000000003
20
-46.052631578947462
10
-239.00000000000003
20
-46.052631578947462
10
-239.00000000000003
20
-59.210526315789565
10
-245.00000000000003
20
-59.210526315789565
10
-245.00000000000003
20
-72.368421052631675
10
-239.00000000000003
20
-72.368421052631675
10
-239.00000000000003
20
-85.526315789473784
10
-245.00000000000003
20
-85.526315789473784
10
-245.00000000000003
20
-98.684210526315894
10
-239.00000000000003
20
-98.684210526315894
10
-239.00000000000003
20
-111.842105263158
10
-245.00000000000003
20
-111.842105263158
10
-245.00000000000006
20
-125.00000000000007
10
-232.43589743589746
20
-125.00000000000007
10
-232.43589743589746
20
-119.00000000000007
10
-219.87179487179489
20
-119.00000000000007
10
-219.87179487179489
20
-125.00000000000007
10
-207.30769230769232
20
-125.00000000000006
10
-207.30769230769232
20
-119.00000000000006
10
-194.74358974358978
20
-119.00000000000006
10
-194.74358974358978
20
-125.00000000000006
10
-182.17948717948724
20
-125.00000000000006
10
-182.17948717948724
20
-119.00000000000006
10
-169.61538461538467
20
-119.00000000000006
10
-169.61538461538467
20
-125.00000000000006
10
-157.05128205128204
20
-125.00000000000006
10
-157.05128205128204
20
-119.00000000000006
10
-144.4871794871795
20
-119.00000000000006
10
-144.4871794871795
20
-125.00000000000006
10
-131.92307692307691
20
-125.00000000000006
10
-131.92307692307691
20
-119.00000000000006
10
-119.35897435897436
20
-119.00000000000006
10
-119.35897435897436
20
-125.00000000000006
10
-106.7948717948718
20
-125.00000000000006
10
-106.7948717948718
20
-119.00000000000006
10
-94.230769230769226
20
-119.00000000000006
10
-94.230769230769226
20
-125.00000000000006
10
-81.666666666666657
20
-125.00000000000006
10
-81.666666666666657
20
-119.00000000000006
10
-69.102564102564102
20
-119.00000000000004
10
-69.102564102564102
20
-125.00000000000003
10
-56.538461538461519
20
-125.00000000000003
10
-56.538461538461519
20
-119.00000000000004
10
-43.974358974358964
20
-119.00000000000004
10
-43.974358974358964
20
-125.00000000000003
10
-31.410256410256391
20
-125.00000000000003
10
-31.410256410256391
20
-119.00000000000004
10
-18.846153846153836
20
-119.00000000000004
10
-18.846153846153836
20
-125.00000000000003
10
-6.2820512820512793
20
-125.00000000000003
10
-6.282051282051281
20
-119.00000000000004
10
6.2820512820512739
20
-119.00000000000004
10
6.2820512820512757
20
-125.00000000000003
10
18.846153846153829
20
-125.00000000000003
10
18.846153846153829
20
-119.00000000000004
10
31.410256410256384
20
-119.00000000000004
10
31.410256410256384
20
-125.00000000000003
10
43.974358974359014
20
-125.00000000000003
10
43.974358974359014
20
-119.00000000000004
10
56.538461538461569
20
-119.00000000000004
10
56.538461538461569
20
-125.00000000000003
10
69.102564102564116
20
-125.00000000000003
10
69.102564102564116
20
-119.00000000000004
10
81.666666666666686
20
-119.00000000000003
10
81.666666666666686
20
-125.00000000000001
10
94.230769230769226
20
-125.00000000000001
10
94.230769230769226
20
-119.00000000000003
10
106.7948717948718
20
-119.00000000000003
10
106.7948717948718
20
-125.00000000000001
10
119.35897435897442
20
-125.00000000000001
10
119.35897435897442
20
-119.00000000000003
10
131.92307692307696
20
-119.00000000000003
10
131.92307692307696
20
-125.00000000000001
10
144.48717948717953
20
-125.00000000000001
10
144.48717948717953
20
-119.00000000000003
10
157.05128205128207
20
-119.00000000000003
10
157.05128205128207
20
-125.00000000000001
10
169.61538461538458
20
-125.00000000000001
10
169.61538461538458
20
-119.00000000000003
10
182.17948717948715
20
-119.00000000000003
10
182.17948717948715
20
-125.00000000000001
10
194.74358974358972
20
-125.00000000000001
10
194.74358974358972
20
-119.00000000000003
10
207.30769230769226
20
-119.00000000000003
10
207.30769230769226
20
-125.00000000000001
10
219.8717948717948
20
-125
10
219.8717948717948
20
-119
10
232.43589743589737
20
-119
10
232.43589743589737
20
-125
10
244.99999999999994
20
-125
10
244.99999999999997
20
-111.84210526315793
10
238.99999999999994
20
-111.84210526315793
10
238.99999999999994
20
-98.684210526315823
10
244.99999999999997
20
-98.684210526315823
10
244.99999999999997
20
-85.526315789473713
10
238.99999999999994
20
-85.526315789473713
10
238.99999999999994
20
-72.368421052631618
10
244.99999999999997
20
-72.368421052631618
10
244.99999999999997
20
-59.210526315789515
10
238.99999999999994
20
-59.210526315789515
10
238.99999999999994
20
-46.052631578947405
10
244.99999999999997
20
-46.052631578947405
10
244.99999999999997
20
-32.894736842105296
10
238.99999999999994
20
-32.894736842105296
10
238.99999999999994
20
-19.736842105263193
10
244.99999999999997
20
-19.736842105263189
10
244.99999999999997
20
-6.5789473684210851
10
238.99999999999994
20
-6.5789473684210868
10
238.99999999999994
20
6.5789473684210193
10
244.99999999999997
20
6.5789473684210211
10
244.99999999999997
20
19.736842105263129
10
238.99999999999994
20
19.736842105263126
10
238.99999999999994
20
32.894736842105232
10
244.99999999999997
20
32.894736842105232
10
244.99999999999997
20
46.052631578947334
10
238.99999999999994
20
46.052631578947334
10
238.99999999999994
20
59.210526315789444
10
244.99999999999997
20
59.210526315789444
10
244.99999999999997
20
72.368421052631547
10
238.99999999999994
20
72.368421052631547
10
238.99999999999994
20
85.526315789473671
10
244.99999999999997
20
85.526315789473671
10
244.99999999999997
20
98.684210526315766
10
238.99999999999994
20
98.684210526315766
10
238.99999999999994
20
111.84210526315788
10
244.99999999999997
20
111.84210526315788
10
244.99999999999994
20
125.00000000000003
10
232.43589743589737
20
124.99999999999999
10
232.43589743589737
20
118.99999999999999
10
219.8717948717948
20
118.99999999999999
10
219.8717948717948
20
124.99999999999999
10
207.30769230769226
20
124.99999999999997
10
207.30769230769226
20
118.99999999999997
10
194.74358974358972
20
118.99999999999997
10
194.74358974358972
20
124.99999999999997
10
182.17948717948715
20
124.99999999999997
10
182.17948717948715
20
118.99999999999997
10
169.61538461538458
20
118.99999999999997
10
169.61538461538458
20
124.99999999999997
10
157.05128205128204
20
124.99999999999997
10
157.05128205128204
20
118.99999999999997
10
144.4871794871795
20
118.99999999999997
10
144.4871794871795
20
124.99999999999997
10
131.92307692307693
20
124.99999999999997
10
131.92307692307693
20
118.99999999999997
10
119.35897435897438
20
118.99999999999997
10
119.35897435897438
20
124.99999999999997
10
106.79487179487175
20
124.99999999999997
10
106.79487179487175
20
118.99999999999997
10
94.230769230769198
20
118.99999999999997
10
94.230769230769198
20
124.99999999999997
10
81.666666666666643
20
124.99999999999997
10
81.666666666666643
20
118.99999999999997
10
69.102564102564088
20
118.99999999999994
10
69.102564102564088
20
124.99999999999994
10
56.538461538461533
20
124.99999999999994
10
56.538461538461533
20
118.99999999999994
10
43.974358974358978
20
118.99999999999994
10
43.974358974358978
20
124.99999999999994
10
31.410256410256356
20
124.99999999999994
10
31.410256410256356
20
118.99999999999994
10
18.846153846153801
20
118.99999999999994
10
18.846153846153801
20
124.99999999999994
10
6.2820512820512437
20
124.99999999999994
10
6.2820512820512455
20
118.99999999999994
10
-6.2820512820513095
20
118.99999999999994
10
-6.2820512820513112
20
124.99999999999994
10
-18.846153846153864
20
124.99999999999994
10
-18.846153846153864
20
118.99999999999994
10
-31.410256410256419
20
118.99999999999994
10
-31.410256410256419
20
124.99999999999994
10
-43.974358974358992
20
124.99999999999994
10
-43.974358974358992
20
118.99999999999994
10
-56.538461538461547
20
118.99999999999994
10
-56.538461538461547
20
124.99999999999994
10
-69.102564102564145
20
124.99999999999994
10
-69.102564102564145
20
118.99999999999994
10
-81.6666666666667
20
118.99999999999993
10
-81.6666666666667
20
124.99999999999993
10
-94.230769230769269
20
124.99999999999993
10
-94.230769230769269
20
118.99999999999993
10
-106.79487179487182
20
118.99999999999993
10
-106.79487179487182
20
124.99999999999993
10
-119.35897435897439
20
124.99999999999993
10
-119.35897435897439
20
118.99999999999993
10
-131.92307692307696
20
118.99999999999993
10
-131.92307692307696
20
124.99999999999993
10
-144.48717948717953
20
124.99999999999993
10
-144.48717948717953
20
118.99999999999993
10
-157.05128205128207
20
118.99999999999993
10
-157.05128205128207
20
124.99999999999993
10
-169.61538461538467
20
124.99999999999993
10
-169.61538461538467
20
118.99999999999993
10
-182.17948717948724
20
118.99999999999993
10
-182.17948717948724
20
124.99999999999993
10
-194.74358974358978
20
124.99999999999993
10
-194.74358974358978
20
118.99999999999993
10
-207.30769230769232
20
118.99999999999993
10
-207.30769230769232
20
124.99999999999993
10
-219.87179487179489
20
124.99999999999991
10
-219.87179487179489
20
118.99999999999991
10
-232.43589743589746
20
118.99999999999991
10
-232.43589743589746
20
124.99999999999991
10
-244.99999999999972
20
124.99999999999997
10
-245.00000000000003
20
111.8421052631578
10
-239.00000000000003
20
111.8421052631578
10
-239.00000000000003
20
98.684210526315695
10
-245.00000000000003
20
98.684210526315695
10
-245.00000000000003
20
85.526315789473585
10
-239.00000000000003
20
85.526315789473585
10
-239.00000000000003
20
72.36842105263149
10
-245.00000000000003
20
72.36842105263149
10
-245.00000000000003
20
59.210526315789387
10
-239.00000000000003
20
59.210526315789387
0
LWPOLYLINE
5
104
100
AcDbEntity
8
0
100
AcDbPolyline
90
6
70
1
43
0.0
10
2.2621662124704072e-14
20
105.38119784648302
10
-3.9999999999999636
20
107.69059892324151
10
-3.999999999999964
20
112.30940107675849
10
2.1490381870064176e-14
20
114.61880215351698
10
4.0000000000000071
20
112.30940107675849
10
4.000000000000008
20
107.69059892324151
0
LWPOLYLINE
5
105
100
AcDbEntity
8
0
100
AcDbPolyline
90
6
70
1
43
0.0
10
-230
20
-105.38119784648305
10
-226
20
-107.69059892324154
10
-226
20
-112.30940107675852
10
-230
20
-114.61880215351701
10
-234
20
-112.30940107675852
10
-234
20
-107.69059892324154
0
CIRCLE
5
106
100
AcDbEntity
8
0
100
AcDbCircle
10
-179.50000000000486
20
53.999999999997769
30
0
40
20
210
0
220
0
230
1
0
LWPOLYLINE
5
107
100
AcDbEntity
8
0
100
AcDbPolyline
90
6
70
1
43
0.0
10
-230
20
114.61880215351695
10
-226
20
112.30940107675846
10
-226
20
107.69059892324148
10
-230
20
105.38119784648299
10
-234
20
107.69059892324148
10
-234
20
112.30940107675846
0
LWPOLYLINE
5
108
100
AcDbEntity
8
0
100
AcDbPolyline
90
4
70
1
43
0.0
10
107.50000000000001
20
-98.499999999999957
10
47.499999999999936
20
-98.5
10
47.499999999999936
20
-55.5
10
107.5
20
-55.5
0
LWPOLYLINE
5
109
100
AcDbEntity
8
0
100
AcDbPolyline
90
6
70
1
43
0.0
10
4.0000000000000346
20
-107.69059892324151
10
4.0000000000000355
20
-112.30940107675849
10
4.9563891705945842e-14
20
-114.61880215351698
10
-3.9999999999999365
20
-112.30940107675849
10
-3.9999999999999369
20
-107.69059892324151
10
4.8432611451305947e-14
20
-105.38119784648302
0
LWPOLYLINE
5
110
100
AcDbEntity
8
0
100
AcDbPolyline
90
4
70
1
43
0.0
10
-47.499999999999986
20
-98.500000000000057
10
-107.49999999999999
20
-98.500000000000071
10
-107.5
20
-55.500000000000036
10
-47.499999999999972
20
-55.500000000000036
0
LWPOLYLINE
5
111
100
AcDbEntity
8
0
100
AcDbPolyline
90
6
70
1
43
0.0
10
226.00000000000009
20
2.309401076758518
10
230.00000000000006
20
4.6188021535170094
10
234.00000000000006
20
2.3094010767585189
10
234.00000000000006
20
-2.3094010767584621
10
230.00000000000006
20
-4.6188021535169526
10
226.00000000000009
20
-2.309401076758463
0
CIRCLE
5
112
100
AcDbEntity
8
0
100
AcDbCircle
10
179.49999999999986
20
53.99999999999433
30
0
40
20
210
0
220
0
230
1
0
LWPOLYLINE
5
113
100
AcDbEntity
8
0
100
AcDbPolyline
90
6
70
1
43
0.0
10
230.00000000000006
20
-105.38119784648299
10
234.00000000000006
20
-107.69059892324148
10
234.00000000000006
20
-112.30940107675846
10
230.00000000000006
20
-114.61880215351695
10
226.00000000000009
20
-112.30940107675846
10
226.00000000000009
20
-107.69059892324148
0
LWPOLYLINE
5
114
100
AcDbEntity
8
0
100
AcDbPolyline
90
6
70
1
43
0.0
10
226.00000000000009
20
107.69059892324154
10
226.00000000000009
20
112.30940107675852
10
230.00000000000006
20
114.61880215351701
10
234.00000000000006
20
112.30940107675852
10
234.00000000000006
20
107.69059892324154
10
230.00000000000006
20
105.38119784648305
0
ENDSEC
0
SECTION
2
OBJECTS
0
DICTIONARY
5
C
100
AcDbDictionary
3
ACAD_GROUP
350
D
3
ACAD_MLINESTYLE
350
17
0
DICTIONARY
5
D
100
AcDbDictionary
0
DICTIONARY
5
1A
330
C
100
AcDbDictionary
0
DICTIONARY
5
17
100
AcDbDictionary
0
ENDSEC
0
EOF
